<svg xmlns="http://www.w3.org/2000/svg" viewBox="0 0 512 512" width="512" height="512">
  <defs>
    <linearGradient id="g" x1="0" y1="0" x2="1" y2="1">
      <stop offset="0" stop-color="#0F2B5C"/>
      <stop offset="0.5" stop-color="#0A7AA3"/>
      <stop offset="1" stop-color="#E6B800"/>
    </linearGradient>
  </defs>
  <rect width="512" height="512" rx="112" fill="url(#g)"/>
  <path d="M120 380 L180 170 L224 170 L284 380 L246 380 L234 336 L170 336 L158 380 Z M178 308 L226 308 L202 224 Z" fill="#fff"/>
  <path d="M304 380 L304 170 L384 170 C420 170 444 194 444 230 C444 266 420 290 384 290 L336 290 L336 380 Z M336 200 L336 260 L380 260 C396 260 412 252 412 230 C412 208 396 200 380 200 Z" fill="#fff"/>
</svg>
