<svg xmlns="http://www.w3.org/2000/svg" viewBox="0 0 192 192" width="192" height="192">
  <defs>
    <linearGradient id="g" x1="0" y1="0" x2="1" y2="1">
      <stop offset="0" stop-color="#0F2B5C"/>
      <stop offset="0.5" stop-color="#0A7AA3"/>
      <stop offset="1" stop-color="#E6B800"/>
    </linearGradient>
  </defs>
  <rect width="192" height="192" rx="42" fill="url(#g)"/>
  <path d="M45 143 L68 64 L84 64 L107 143 L93 143 L88 126 L64 126 L59 143 Z M67 115 L85 115 L76 83 Z" fill="#fff"/>
  <path d="M114 143 L114 64 L144 64 C158 64 167 73 167 87 C167 100 158 109 144 109 L126 109 L126 143 Z M126 75 L126 98 L143 98 C149 98 155 95 155 87 C155 78 149 75 143 75 Z" fill="#fff"/>
</svg>
